<svg width="250" height="250" viewBox="0 0 250 250" fill="none" xmlns="http://www.w3.org/2000/svg">
<g clip-path="url(#clip0_45_13)">
<rect width="250" height="250" rx="30" fill="white"/>
<rect width="250" height="250" rx="30" fill="url(#paint0_linear_45_13)"/>
<g opacity="0.5">
<g filter="url(#filter0_i_45_13)">
<ellipse cx="-23" cy="-24.5" rx="107" ry="131.5" fill="#0029FF"/>
</g>
<path d="M80 -24.5C80 46.7265 33.1541 103 -23 103C-79.1541 103 -126 46.7265 -126 -24.5C-126 -95.7265 -79.1541 -152 -23 -152C33.1541 -152 80 -95.7265 80 -24.5Z" stroke="black" stroke-width="8"/>
</g>
<path d="M137.285 89.3828V197H112.676V89.3828H77.7148V69.3633H172.246V89.3828H137.285Z" fill="white"/>
<g opacity="0.5">
<g filter="url(#filter1_i_45_13)">
<ellipse cx="254" cy="288.5" rx="107" ry="131.5" fill="#D400FB"/>
</g>
<path d="M357 288.5C357 359.727 310.154 416 254 416C197.846 416 151 359.727 151 288.5C151 217.273 197.846 161 254 161C310.154 161 357 217.273 357 288.5Z" stroke="black" stroke-width="8"/>
</g>
</g>
<defs>
<filter id="filter0_i_45_13" x="-130" y="-156" width="214" height="267" filterUnits="userSpaceOnUse" color-interpolation-filters="sRGB">
<feFlood flood-opacity="0" result="BackgroundImageFix"/>
<feBlend mode="normal" in="SourceGraphic" in2="BackgroundImageFix" result="shape"/>
<feColorMatrix in="SourceAlpha" type="matrix" values="0 0 0 0 0 0 0 0 0 0 0 0 0 0 0 0 0 0 127 0" result="hardAlpha"/>
<feOffset dy="4"/>
<feGaussianBlur stdDeviation="2"/>
<feComposite in2="hardAlpha" operator="arithmetic" k2="-1" k3="1"/>
<feColorMatrix type="matrix" values="0 0 0 0 0 0 0 0 0 0 0 0 0 0 0 0 0 0 0.25 0"/>
<feBlend mode="normal" in2="shape" result="effect1_innerShadow_45_13"/>
</filter>
<filter id="filter1_i_45_13" x="147" y="157" width="214" height="267" filterUnits="userSpaceOnUse" color-interpolation-filters="sRGB">
<feFlood flood-opacity="0" result="BackgroundImageFix"/>
<feBlend mode="normal" in="SourceGraphic" in2="BackgroundImageFix" result="shape"/>
<feColorMatrix in="SourceAlpha" type="matrix" values="0 0 0 0 0 0 0 0 0 0 0 0 0 0 0 0 0 0 127 0" result="hardAlpha"/>
<feOffset dy="4"/>
<feGaussianBlur stdDeviation="2"/>
<feComposite in2="hardAlpha" operator="arithmetic" k2="-1" k3="1"/>
<feColorMatrix type="matrix" values="0 0 0 0 0 0 0 0 0 0 0 0 0 0 0 0 0 0 0.25 0"/>
<feBlend mode="normal" in2="shape" result="effect1_innerShadow_45_13"/>
</filter>
<linearGradient id="paint0_linear_45_13" x1="125" y1="0" x2="125" y2="250" gradientUnits="userSpaceOnUse">
<stop stop-color="#2B61B7"/>
<stop offset="0.958333" stop-color="#A22AB6" stop-opacity="0.645833"/>
</linearGradient>
<clipPath id="clip0_45_13">
<rect width="250" height="250" rx="30" fill="white"/>
</clipPath>
</defs>
</svg>
